<svg xmlns="http://www.w3.org/2000/svg" viewBox="0 0 24 24" fill="none" stroke="#000" stroke-width="2" stroke-linecap="round" stroke-linejoin="round"><path d="M15.54 11.29a1 1 0 0 0 0 1.42l2.83 2.82a1 1 0 0 0 1.41 0l2.83-2.82a1 1 0 0 0 0-1.42l-2.83-2.83a1 1 0 0 0-1.41 0z"/><path d="M8.46 11.29 5.64 8.46a1 1 0 0 0-1.42 0L1.39 11.29a1 1 0 0 0 0 1.42l2.83 2.82a1 1 0 0 0 1.42 0l2.82-2.82a1 1 0 0 0 0-1.42"/><path d="M11.29 8.46 8.46 5.64a1 1 0 0 1 0-1.42l2.83-2.83a1 1 0 0 1 1.42 0l2.83 2.83a1 1 0 0 1 0 1.42l-2.83 2.82a1 1 0 0 1-1.42 0"/><path d="M11.29 15.54l-2.83 2.82a1 1 0 0 0 0 1.42l2.83 2.83a1 1 0 0 0 1.42 0l2.83-2.83a1 1 0 0 0 0-1.42l-2.83-2.82a1 1 0 0 0-1.42 0"/></svg>
